<?xml version="1.0" encoding="utf-8"?>
<!-- Generator: Adobe Illustrator 22.0.0, SVG Export Plug-In . SVG Version: 6.00 Build 0)  -->
<svg version="1.1" xmlns="http://www.w3.org/2000/svg" xmlns:xlink="http://www.w3.org/1999/xlink" x="0px" y="0px"
	 viewBox="0 0 512 512" style="enable-background:new 0 0 512 512;" xml:space="preserve">
<style type="text/css">
	.st0{fill:#E1902B;}
	.st1{fill:#3D2A3D;}
	.st2{fill:#E7AD84;}
	.st3{fill:#2961A5;}
	.st4{fill:#FFD66C;}
	.st5{fill:#A18FA1;}
	.st6{fill:#DB4646;}
	.st7{fill:#78BEDE;}
	.st8{fill:#43B06D;}
	.st9{fill:#9EC853;}
	.st10{fill:#217D44;}
	.st11{fill:#DBDBDB;}
	.st12{fill:#FFFFFF;}
	.st13{fill:#C41E1E;}
	.st14{fill:#B9BDC2;}
	.st15{fill:#856685;}
	.st16{fill:#E8E8E8;}
	.st17{fill:#BDBDBD;}
	.st18{fill:#839797;}
	.st19{fill:#D9D9D9;}
	.st20{fill:#F0F0F0;}
	.st21{fill:#BFBFBF;}
	.st22{fill:#706470;}
	.st23{fill:#4B1E4C;}
	.st24{fill:#614F61;}
	.st25{fill:#A37352;}
	.st26{fill:#7A6C7A;}
	.st27{fill:#919191;}
	.st28{fill:#6E6E6E;}
	.st29{fill:#B8B8B8;}
	.st30{fill:#FF826E;}
	.st31{fill:#7D5737;}
	.st32{fill:#2E1B17;}
	.st33{fill:#483324;}
	.st34{fill:#9E9E9E;}
	.st35{fill:#7D6F7D;}
	.st36{fill:#6B4A6B;}
	.st37{fill:#4A80C2;}
	.st38{fill:#B34B0F;}
	.st39{fill:#FFC682;}
	.st40{clip-path:url(#SVGID_2_);fill:#DBDBDB;}
	.st41{fill:#FFDBC5;}
	.st42{fill:#E3E3E3;}
	.st43{clip-path:url(#SVGID_4_);}
	.st44{clip-path:url(#SVGID_6_);fill:#DBDBDB;}
	.st45{clip-path:url(#SVGID_8_);}
	.st46{fill:#E8B494;}
	.st47{fill:#F2D7C4;}
	.st48{fill:#5D5660;}
	.st49{fill:#3B2D3F;}
	.st50{fill:#756275;}
	.st51{fill:#E1622B;}
	.st52{fill:#F0E9E9;}
	.st53{fill:#4D917B;}
	.st54{fill:#C4C4C4;}
	.st55{fill:#14855A;}
	.st56{fill:#C21B1B;}
</style>
<g id="Layer_9">
	<path class="st4" d="M0,256C0,114.6,114.6,0,256,0c141.4,0,256,114.6,256,256c0,141.4-114.6,256-256,256C114.6,512,0,397.4,0,256z"
		/>
</g>
<g id="Layer_7">
	<g>
		<ellipse class="st1" cx="257.3" cy="185.7" rx="126" ry="74.7"/>
		<g>
			<path class="st50" d="M257.3,257c-56,0-99.9-26.4-99.9-60s43.9-60,99.9-60c56,0,99.9,26.4,99.9,60S313.3,257,257.3,257z
				 M257.3,155.1c-43.8,0-80.9,19.2-80.9,41.9s37,41.9,80.9,41.9c43.8,0,80.9-19.2,80.9-41.9S301.1,155.1,257.3,155.1z"/>
		</g>
		<g>
			<circle class="st51" cx="191.9" cy="251.9" r="28"/>
			<circle class="st51" cx="322.6" cy="251.9" r="28"/>
			<circle class="st51" cx="229.3" cy="242.6" r="28"/>
			<circle class="st51" cx="266.6" cy="251.9" r="28"/>
		</g>
		<g>
			<path class="st50" d="M393,370.5c0,11.3-9.2,20.5-20.5,20.5H142.5c-11.3,0-20.5-9.2-20.5-20.5v-98.9c0-11.3,9.2-20.5,20.5-20.5
				h229.9c11.3,0,20.5,9.2,20.5,20.5V370.5z"/>
			<g>
				<g>
					<g>
						<path class="st12" d="M215.1,310.2c0.4,5.1,3.9,6.5,7.8,3.1l19.2-17.1c3.8-3.4,3.1-7.8-1.7-9.7l-19.5-7.8
							c-4.8-1.9-8.3,0.7-7.9,5.9L215.1,310.2z"/>
						<path class="st12" d="M220.5,308.3c0.3,3.5,2.7,4.4,5.3,2.1l13-11.6c2.6-2.3,2.1-5.3-1.2-6.6l-13.2-5.2
							c-3.2-1.3-5.6,0.5-5.3,4L220.5,308.3z"/>
					</g>
					<g>
						<path class="st12" d="M299.4,310.2c-0.4,5.1-3.9,6.5-7.8,3.1l-19.2-17.1c-3.8-3.4-3.1-7.8,1.7-9.7l19.5-7.8
							c4.8-1.9,8.3,0.7,7.9,5.9L299.4,310.2z"/>
						<path class="st12" d="M294.1,308.3c-0.3,3.5-2.7,4.4-5.3,2.1l-13-11.6c-2.6-2.3-2.1-5.3,1.2-6.6l13.2-5.2
							c3.2-1.3,5.6,0.5,5.3,4L294.1,308.3z"/>
					</g>
				</g>
				<g>
					<path class="st12" d="M257.3,358.8c20.5,0,38.1-8.7,46.6-21.4c-8.5-12.7-26.1-21.4-46.6-21.4c-20.4,0-38.1,8.7-46.6,21.4
						C219.1,350.1,236.8,358.8,257.3,358.8z"/>
					<path class="st12" d="M295,352v-31.8c0-18.4-16.5-33.3-37-33.3c-20.5,0-37,14.9-37,33.3V352H295z"/>
				</g>
				<g>
					<path class="st12" d="M248.9,320.9c0,2.2-1.8,3.9-3.9,3.9c-2.2,0-3.9-1.8-3.9-3.9c0-2.2,1.8-3.9,3.9-3.9
						C247.1,317,248.9,318.8,248.9,320.9z"/>
					<path class="st12" d="M273.5,320.9c0,2.2-1.8,3.9-3.9,3.9c-2.2,0-3.9-1.8-3.9-3.9c0-2.2,1.8-3.9,3.9-3.9
						C271.8,317,273.5,318.8,273.5,320.9z"/>
				</g>
				<g>
					<path class="st12" d="M260,305c0-6,0-12,0-18c-1-0.1-2-0.1-3-0.1c-1,0-2,0-3,0.1c0,6.1,0,12,0,18C254,309,260,309,260,305z"/>
					<path class="st12" d="M241.4,305.7c1,3.7,6.8,2.2,5.8-1.6c-1.4-5.5-0.8-11.3,1.7-16.3c-2.5,0.5-4.9,1.3-7.2,2.2
						C240.2,295,240,300.5,241.4,305.7z"/>
					<path class="st12" d="M267.4,304.1c-1,3.8,4.8,5.3,5.8,1.6c1.3-5.2,1.2-10.6-0.3-15.7c-2.3-1-4.7-1.7-7.2-2.2
						C268.1,292.8,268.8,298.6,267.4,304.1z"/>
				</g>
				<path class="st12" d="M257.3,364.9c19.4,0,36.1-6.3,44.1-15.4c-8-9.1-24.7-15.4-44.1-15.4c-19.4,0-36.1,6.3-44.1,15.4
					C221.2,358.6,237.9,364.9,257.3,364.9z"/>
				<g>
					<path class="st12" d="M274,344c0,5-4,9-9,9h-16c-5,0-9-4-9-9l0,0c0-5,4-9,9-9h16C270,335,274,339,274,344L274,344z"/>
					<path class="st12" d="M269.2,336.3c0,5.3-5.4,9.6-12,9.6c-6.6,0-12-4.3-12-9.6c0-5.3,5.4-9.6,12-9.6
						C263.9,326.6,269.2,331,269.2,336.3z"/>
					<g>
						<path class="st12" d="M263.7,344.1c-0.1,3.7-2.9,6.5-6.6,6.6c-3.7,0.1-6.5-3.1-6.6-6.6c-0.1-2.3-3.6-2.3-3.5,0
							c0.1,5.6,4.5,10,10.1,10.1c5.6,0.1,10-4.7,10.1-10.1C267.3,341.8,263.8,341.8,263.7,344.1L263.7,344.1z"/>
					</g>
					<g>
						<g>
							<path class="st12" d="M265.4,332.7c0,2.3-8.3,6.8-8.3,6.8s-8.3-4.5-8.3-6.8c0-2.3,3.7-2.9,8.3-2.9
								C261.7,329.8,265.4,330.3,265.4,332.7z"/>
							<path class="st12" d="M260,347c0,1.1-0.9,2-2,2H258c-1.1,0-2-0.9-2-2V337c0-1.1,0.9-2,2-2h0.1c1.1,0,2,0.9,2,2V347z"/>
						</g>
					</g>
				</g>
			</g>
		</g>
	</g>
</g>
</svg>
